<svg xmlns="http://www.w3.org/2000/svg" viewBox="0 0 1095 431"><defs><style>.a{fill:#ffb53e;}.b{fill:#f8fff4;}.c{fill:#0084e3;}.d{fill:#fff;}</style></defs><path class="a" d="M790.9,165.06c5.57-1,11.3-10.18,14.94-17.23-19.16-12.55-31.28-31.1-31.28-51.81,0-37.79,40.39-68.42,90.22-68.42S955,58.23,955,96s-40.4,68.43-90.23,68.43a113.63,113.63,0,0,1-41.47-7.64c-2.06,2-4.4,4.09-7,6.16C805.5,171.73,781.72,166.73,790.9,165.06Z"/><circle class="b" cx="844.46" cy="97.8" r="6.5"/><circle class="b" cx="864.78" cy="97.8" r="6.5"/><circle class="b" cx="885.1" cy="97.8" r="6.5"/><path class="c" d="M1012.89,184.34c-3.79-.69-7.69-6.92-10.16-11.71,13-8.54,21.27-21.16,21.27-35.24,0-25.7-27.47-46.53-61.36-46.53s-61.36,20.83-61.36,46.53,27.47,46.54,61.36,46.54a77.2,77.2,0,0,0,28.2-5.2c1.41,1.36,3,2.78,4.74,4.19C1003,188.88,1019.13,185.48,1012.89,184.34Z"/><circle class="d" cx="948.42" cy="138.6" r="4.55"/><circle class="d" cx="962.64" cy="138.6" r="4.55"/><circle class="d" cx="976.86" cy="138.6" r="4.55"/><path class="d" d="M162.93,346.83l14.37,1.39v5.72H114.37v-5.72l14.37-1.39V165.56l-16.88.28-.28-5.72,29.16-3.07,19.68-5.17,2.51,4.05Zm24.56-83.17,56.1,83.17,14.51,1.39v5.72H194.19v-5.72l11.3-1.39L162.93,281.1v-3.49l54.28-56.51-15.63-1.54v-5.72h41.73v5.72l-15.77,1.54Z"/><path class="d" d="M377.23,283.89c0,41.17-25.39,74.24-63.21,74.24-44.79,0-64-33.63-64-73.4,0-42.56,26.65-75.07,64.33-75.07C356.86,209.66,377.23,246.77,377.23,283.89Zm-35.72.84c0-43.12-6.28-68.8-28.05-68.8-20.23,0-27.77,28.61-27.77,67.12,0,40.05,7.54,68.8,27.77,68.8C334.39,351.85,341.51,323.38,341.51,284.73Z"/><path class="d" d="M439.71,233.94h.56c7.81-11.45,20.93-24.28,43-24.28,14.23,0,39.07,5.44,39.07,46.32v90.85l14.23,1.39v5.72H473.76v-5.72L488,346.83V251.94c0-28.89-14.23-29.73-19.11-29.73-16.61,0-28.61,16.61-28.61,41.45v83.17l14.37,1.39v5.72H391.71v-5.72l14.37-1.39V224.73L389.2,225l-.28-5.72,29.16-3.07,19.68-5.16,2.51,4Z"/><path class="d" d="M648.71,221.8c4.88-9.21,13.54-21.35,27.21-21.35,11.16,0,17.16,7.11,17.16,16.32,0,8.23-5.44,14.79-13.11,14.79-8.38,0-14.38-4.74-14.38-13.39a12.48,12.48,0,0,1,1.54-6.84v-.56c-4.88,1-10,7.54-13.26,15.77a46.09,46.09,0,0,1,12.7,31.54c0,28-24.14,47.44-56.65,47.44A80.85,80.85,0,0,1,585.36,302c-11,3.91-17.86,10.05-17.86,16.47,0,9.77,20.37,12.84,46.32,12.84,49.68,0,65.31,9.76,65.31,42.28,0,21.49-17.58,49.39-67.26,49.39-25.67,0-66.28-5-66.28-33.35,0-21.9,22.46-29,31.12-29.16v-.28c-15.21-4.6-26-12.56-26-28.05,0-17.86,16.47-29.44,27.49-32.65v-.28c-17.3-8.09-25.81-23.44-25.81-40.88,0-27.77,25.39-48.7,57.77-48.7C626.52,209.66,639.36,214.4,648.71,221.8ZM582.43,361.62a28.58,28.58,0,0,0-12,23.72c0,24,24.84,30.42,46.6,30.42,29.17,0,46.61-12.7,46.61-30.14C663.64,355.34,617,367.06,582.43,361.62Zm49.81-103.26c0-28.89-6.14-42.43-22-42.43-15.21,0-23.45,15.35-23.45,41.59,0,26.79,7.68,41.72,22.89,41.72C625.27,299.24,632.24,284.59,632.24,258.36Z"/><path class="d" d="M742.72,346.83l14.38,1.39v5.72H694.16v-5.72l14.38-1.39V165.56l-16.89.28-.28-5.72,29.17-3.07,19.67-5.17,2.51,4.05Zm24.56-83.17,56.1,83.17,14.51,1.39v5.72H774v-5.72l11.31-1.39L742.72,281.1v-3.49L797,221.1l-15.63-1.54v-5.72H823.1v5.72l-15.77,1.54Z"/><path class="d" d="M957,283.89c0,41.17-25.4,74.24-63.22,74.24-44.79,0-64-33.63-64-73.4,0-42.56,26.66-75.07,64.33-75.07C936.65,209.66,957,246.77,957,283.89Zm-35.73.84c0-43.12-6.28-68.8-28-68.8-20.24,0-27.77,28.61-27.77,67.12,0,40.05,7.53,68.8,27.77,68.8C914.19,351.85,921.3,323.38,921.3,284.73Z"/></svg>